<?xml version="1.0" standalone="no"?>
<!DOCTYPE svg PUBLIC "-//W3C//DTD SVG 20010904//EN"
 "http://www.w3.org/TR/2001/REC-SVG-20010904/DTD/svg10.dtd">
<svg version="1.0" xmlns="http://www.w3.org/2000/svg"
 width="131.000000pt" height="131.000000pt" viewBox="0 0 131.000000 131.000000"
 preserveAspectRatio="xMidYMid meet">
<metadata>
Created by potrace 1.11, written by Peter Selinger 2001-2013
</metadata>
<g transform="translate(0.000000,131.000000) scale(0.100000,-0.100000)"
fill="#000000" stroke="none">
<path d="M902 1219 c-12 -5 -25 -16 -29 -25 -4 -10 -13 -14 -29 -10 -35 9 -73
-10 -80 -40 -4 -15 1 -52 11 -88 l17 -61 -53 -47 c-29 -26 -88 -74 -132 -105
-167 -122 -211 -160 -244 -207 -94 -138 -80 -330 33 -456 l39 -43 -42 22 c-85
43 -143 124 -162 226 -13 67 0 128 44 211 41 76 41 110 3 151 -41 44 -126 36
-158 -14 -8 -14 -10 -1 -8 53 3 60 8 77 32 109 39 51 102 78 173 73 62 -3 84
15 38 32 -76 29 -192 -9 -243 -79 -35 -48 -57 -128 -48 -174 4 -25 3 -28 -5
-15 -37 64 -13 202 49 270 50 55 102 78 182 78 112 0 193 -60 231 -172 20 -61
44 -71 43 -18 -2 76 -71 168 -160 210 -103 50 -248 20 -325 -67 -115 -132 -99
-349 32 -422 32 -18 43 -20 55 -10 13 10 13 14 -1 29 -24 27 -19 77 10 96 29
19 60 11 81 -22 15 -22 14 -28 -25 -106 -49 -99 -57 -145 -41 -224 34 -164
146 -265 330 -295 98 -16 503 -24 529 -10 28 15 42 63 27 92 -17 35 -53 49
-128 49 l-67 0 24 36 c13 20 27 52 31 71 7 38 1 117 -11 147 -8 17 -5 19 25
13 47 -10 98 7 181 58 40 25 79 45 85 45 20 0 54 51 54 81 0 30 -40 69 -71 69
-10 0 -33 -13 -51 -28 -61 -53 -129 -65 -172 -31 -45 35 -34 49 37 49 88 0
130 15 167 57 30 33 32 40 28 94 -5 73 -39 127 -112 174 -40 27 -56 45 -64 73
-11 37 -62 94 -92 104 -8 3 -25 2 -38 -3z m55 -61 c25 -28 47 -68 36 -68 -14
1 -93 77 -86 84 12 12 30 6 50 -16z m-54 -48 c26 -16 47 -34 47 -39 0 -6 17
-15 38 -21 101 -28 172 -99 180 -179 4 -44 2 -52 -23 -75 -47 -44 -173 -47
-240 -6 -24 15 -34 17 -43 8 -9 -9 -6 -18 12 -37 13 -15 29 -42 35 -62 25 -77
96 -106 188 -75 28 9 60 28 72 42 24 28 39 28 55 0 13 -21 7 -26 -114 -97 -81
-48 -88 -50 -147 -47 -46 3 -70 10 -90 26 -82 65 -177 87 -247 58 -36 -15 -38
-18 -25 -32 12 -12 21 -13 43 -4 83 31 195 -23 237 -115 36 -77 19 -165 -42
-226 -60 -60 -51 -68 83 -71 108 -3 113 -4 116 -25 5 -32 -19 -35 -245 -31
-229 5 -264 14 -342 84 -124 111 -146 301 -51 432 30 42 47 56 235 195 55 41
132 103 171 138 39 35 79 69 89 75 12 7 16 16 12 28 -7 17 -9 17 -43 -3 l-35
-21 -15 35 c-7 19 -14 44 -14 55 0 30 47 26 103 -10z"/>
<path d="M1004 929 c-3 -6 -2 -15 4 -21 13 -13 32 -2 32 18 0 16 -26 19 -36 3z"/>
<path d="M675 530 c-9 -15 4 -30 26 -30 31 0 75 -27 99 -60 24 -34 50 -40 50
-11 0 59 -148 145 -175 101z"/>
<path d="M806 314 c-31 -55 -32 -64 -7 -64 22 0 52 42 54 77 3 43 -19 37 -47
-13z"/>
</g>
</svg>
